Info:


General
Complete name : Ithu.Njangalude.Lokam.(2009) Malayalam.DVDRip.X264.MP3.2.0-MJY Appu.mp4
Format : MPEG-4
Format profile : Base Media
Codec ID : isom
File size : 702 MiB
Duration : 2h 26mn
Overall bit rate : 670 Kbps

Video
ID : 1
Format : AVC
Format/Info : Advanced Video Codec
Format profile : High@L2.1
Format settings, CABAC : Yes
Format settings, ReFrames : 5 frames
Codec ID : avc1
Codec ID/Info : Advanced Video Coding
Duration : 2h 26mn
Bit rate : 515 Kbps
Maximum bit rate : 1 489 Kbps
Width : 608 pixels
Height : 256 pixels
Display aspect ratio : 2.40:1
Frame rate mode : Constant
Frame rate : 29.970 fps
Color space : YUV
Chroma subsampling : 4:2:0
Bit depth : 8 bits
Scan type : Progressive
Bits/(Pixel*Frame) : 0.110
Stream size : 540 MiB (77%)

Audio
ID : 2
Format : MPEG Audio
Format version : Version 1
Format profile : Layer 3
Mode : Joint stereo
Mode extension : MS Stereo
Codec ID : 6B
Duration : 2h 26mn
Bit rate mode : Variable
Bit rate : 150 Kbps
Minimum bit rate : 32.0 Kbps
Maximum bit rate : 273 Kbps
Channel(s) : 2 channels
Sampling rate : 48.0 KHz
Compression mode : Lossy
Stream size : 158 MiB (22%)


SCreenshots:
 
http://i1135.photobucket.com/albums/m624/teamRjaa/vlcsnap-2011-10-30-15h48m32s246.png
 
http://i1135.photobucket.com/albums/m624/teamRjaa/vlcsnap-2011-10-30-15h44m53s244.png
 
http://i1135.photobucket.com/albums/m624/teamRjaa/vlcsnap-2011-10-30-15h44m18s138.png
 
http://i1135.photobucket.com/albums/m624/teamRjaa/vlcsnap-2011-10-30-15h48m41s216.png
 
http://i1135.photobucket.com/albums/m624/teamRjaa/vlcsnap-2011-10-30-15h48m51s26.png
 
http://i1135.photobucket.com/albums/m624/teamRjaa/vlcsnap-2011-10-30-15h48m57s105.png
 
http://i1135.photobucket.com/albums/m624/teamRjaa/vlcsnap-2011-10-30-15h49m07s221.png
 
http://i1135.photobucket.com/albums/m624/teamRjaa/vlcsnap-2011-10-30-15h49m14s38.png